<svg width="206" height="217" viewBox="0 0 206 217" fill="none" xmlns="http://www.w3.org/2000/svg">
<path d="M53.3 156V35.4H57.8V156H53.3ZM33.5 156V35.4H38V156H33.5ZM43.4 156V35.4H47.9V156H43.4ZM63.2 105.6V101.1H98.45C104.15 101.1 109.3 99.85 113.9 97.35C118.6 94.85 122.3 91.3 125 86.7C127.8 82.1 129.2 76.7 129.2 70.5C129.2 64.3 127.8 58.9 125 54.3C122.3 49.7 118.6 46.15 113.9 43.65C109.3 41.15 104.15 39.9 98.45 39.9H63.2V35.4H98.45C104.95 35.4 110.85 36.9 116.15 39.9C121.55 42.8 125.8 46.9 128.9 52.2C132.1 57.4 133.7 63.5 133.7 70.5C133.7 77.5 132.1 83.65 128.9 88.95C125.8 94.15 121.55 98.25 116.15 101.25C110.85 104.15 104.95 105.6 98.45 105.6H63.2ZM63.2 95.7V91.2H98.45C104.25 91.2 109.15 89.4 113.15 85.8C117.25 82.1 119.3 77 119.3 70.5C119.3 64 117.25 58.95 113.15 55.35C109.15 51.65 104.25 49.8 98.45 49.8H63.2V45.3H98.45C103.15 45.3 107.4 46.35 111.2 48.45C115 50.45 118.05 53.35 120.35 57.15C122.65 60.85 123.8 65.3 123.8 70.5C123.8 75.7 122.65 80.2 120.35 84C118.05 87.7 115 90.6 111.2 92.7C107.4 94.7 103.15 95.7 98.45 95.7H63.2ZM63.2 85.8V81.3H98.45C101.45 81.3 104 80.45 106.1 78.75C108.3 76.95 109.4 74.2 109.4 70.5C109.4 66.7 108.3 63.95 106.1 62.25C104 60.55 101.45 59.7 98.45 59.7H63.2V55.2H98.45C102.75 55.2 106.4 56.5 109.4 59.1C112.4 61.7 113.9 65.5 113.9 70.5C113.9 75.5 112.4 79.3 109.4 81.9C106.4 84.5 102.75 85.8 98.45 85.8H63.2ZM127.55 156L106.4 109.65C107.1 109.55 107.8 109.45 108.5 109.35C109.3 109.15 110.05 108.9 110.75 108.6L132.5 156H127.55ZM116.6 156L95.75 110.7C96.55 110.7 97.35 110.7 98.15 110.7C99.05 110.6 99.9 110.5 100.7 110.4L121.55 156H116.6ZM105.65 156L84.95 110.85H89.9L110.6 156H105.65Z" fill="#003F91"/>
<path d="M137.768 137H136.384L140.389 126.091H141.753L145.759 137H144.374L141.114 127.817H141.028L137.768 137ZM138.28 132.739H143.862V133.911H138.28V132.739ZM153.424 128.818C153.36 128.278 153.1 127.859 152.646 127.561C152.191 127.263 151.634 127.114 150.973 127.114C150.49 127.114 150.068 127.192 149.706 127.348C149.347 127.504 149.066 127.719 148.864 127.993C148.665 128.266 148.566 128.577 148.566 128.925C148.566 129.216 148.635 129.466 148.773 129.676C148.915 129.882 149.097 130.054 149.317 130.192C149.537 130.327 149.768 130.439 150.009 130.528C150.251 130.613 150.473 130.683 150.675 130.736L151.783 131.034C152.067 131.109 152.383 131.212 152.731 131.343C153.083 131.474 153.418 131.654 153.738 131.881C154.061 132.105 154.327 132.392 154.537 132.744C154.746 133.096 154.851 133.527 154.851 134.038C154.851 134.628 154.697 135.161 154.388 135.636C154.082 136.112 153.635 136.49 153.045 136.771C152.46 137.051 151.748 137.192 150.909 137.192C150.128 137.192 149.452 137.066 148.88 136.814C148.312 136.561 147.864 136.21 147.538 135.759C147.214 135.308 147.032 134.784 146.989 134.188H148.353C148.388 134.599 148.527 134.94 148.768 135.21C149.013 135.477 149.322 135.675 149.695 135.807C150.071 135.935 150.476 135.999 150.909 135.999C151.414 135.999 151.866 135.917 152.268 135.754C152.669 135.587 152.987 135.356 153.221 135.061C153.456 134.763 153.573 134.415 153.573 134.017C153.573 133.655 153.472 133.36 153.269 133.133C153.067 132.906 152.8 132.721 152.47 132.579C152.14 132.437 151.783 132.312 151.4 132.206L150.057 131.822C149.205 131.577 148.53 131.228 148.033 130.773C147.536 130.319 147.287 129.724 147.287 128.989C147.287 128.378 147.452 127.845 147.783 127.391C148.116 126.933 148.564 126.577 149.125 126.325C149.69 126.07 150.32 125.942 151.016 125.942C151.719 125.942 152.344 126.068 152.891 126.32C153.438 126.569 153.871 126.909 154.191 127.343C154.514 127.776 154.684 128.268 154.702 128.818H153.424ZM157.471 137H156.086L160.091 126.091H161.455L165.461 137H164.076L160.816 127.817H160.731L157.471 137ZM157.982 132.739H163.564V133.911H157.982V132.739ZM167.16 137V126.091H173.701V127.263H168.481V130.949H173.211V132.121H168.481V137H167.16ZM183.123 126.091H184.444V133.314C184.444 134.06 184.268 134.725 183.916 135.311C183.568 135.894 183.077 136.354 182.441 136.691C181.805 137.025 181.059 137.192 180.204 137.192C179.348 137.192 178.602 137.025 177.966 136.691C177.331 136.354 176.837 135.894 176.486 135.311C176.138 134.725 175.964 134.06 175.964 133.314V126.091H177.285V133.207C177.285 133.74 177.402 134.214 177.636 134.63C177.871 135.042 178.204 135.366 178.638 135.604C179.074 135.839 179.596 135.956 180.204 135.956C180.811 135.956 181.333 135.839 181.77 135.604C182.206 135.366 182.54 135.042 182.771 134.63C183.006 134.214 183.123 133.74 183.123 133.207V126.091ZM191.599 130.96V132.131H186.826V130.96H191.599ZM137.768 155H136.384L140.389 144.091H141.753L145.759 155H144.374L141.114 145.817H141.028L137.768 155ZM138.28 150.739H143.862V151.911H138.28V150.739ZM150.824 155H147.458V144.091H150.973C152.032 144.091 152.937 144.309 153.69 144.746C154.443 145.179 155.02 145.803 155.421 146.616C155.822 147.425 156.023 148.395 156.023 149.524C156.023 150.661 155.821 151.639 155.416 152.459C155.011 153.276 154.422 153.904 153.647 154.345C152.873 154.782 151.932 155 150.824 155ZM148.779 153.828H150.739C151.641 153.828 152.388 153.654 152.982 153.306C153.575 152.958 154.017 152.463 154.308 151.82C154.599 151.177 154.745 150.412 154.745 149.524C154.745 148.643 154.601 147.885 154.313 147.25C154.026 146.61 153.596 146.12 153.024 145.779C152.452 145.435 151.74 145.263 150.888 145.263H148.779V153.828ZM162.415 144.091H163.736V151.889C163.736 152.585 163.608 153.176 163.353 153.663C163.097 154.15 162.737 154.519 162.271 154.771C161.806 155.023 161.257 155.149 160.625 155.149C160.029 155.149 159.498 155.041 159.033 154.824C158.567 154.604 158.202 154.292 157.935 153.887C157.669 153.482 157.536 153.001 157.536 152.443H158.836C158.836 152.752 158.912 153.022 159.065 153.253C159.221 153.48 159.434 153.658 159.704 153.786C159.974 153.913 160.281 153.977 160.625 153.977C161.005 153.977 161.328 153.897 161.595 153.738C161.861 153.578 162.064 153.343 162.202 153.034C162.344 152.722 162.415 152.34 162.415 151.889V144.091ZM166.831 155H165.446L169.452 144.091H170.815L174.821 155H173.436L170.176 145.817H170.091L166.831 155ZM167.342 150.739H172.925V151.911H167.342V150.739ZM174.469 144.091H175.982L179.008 149.183H179.136L182.161 144.091H183.674L179.732 150.504V155H178.411V150.504L174.469 144.091ZM185.383 155V144.091H191.966V145.263H186.704V148.949H191.625V150.121H186.704V153.828H192.052V155H185.383Z" fill="#003F91"/>
<path d="M68.4801 144.091H69.8011V151.314C69.8011 152.06 69.6254 152.725 69.2738 153.311C68.9258 153.894 68.4339 154.354 67.7983 154.691C67.1626 155.025 66.4169 155.192 65.5611 155.192C64.7053 155.192 63.9595 155.025 63.3239 154.691C62.6882 154.354 62.1946 153.894 61.843 153.311C61.495 152.725 61.321 152.06 61.321 151.314V144.091H62.642V151.207C62.642 151.74 62.7592 152.214 62.9936 152.63C63.228 153.042 63.5618 153.366 63.995 153.604C64.4318 153.839 64.9538 153.956 65.5611 153.956C66.1683 153.956 66.6903 153.839 67.1271 153.604C67.5639 153.366 67.8977 153.042 68.1286 152.63C68.3629 152.214 68.4801 151.74 68.4801 151.207V144.091ZM71.8426 145.263V144.091H80.0244V145.263H76.594V155H75.273V145.263H71.8426ZM82.0632 155V144.091H83.3842V148.949H89.201V144.091H90.522V155H89.201V150.121H83.3842V155H82.0632Z" fill="#003F91"/>
</svg>
